<svg version="1.1" id="Layer_1" xmlns="http://www.w3.org/2000/svg" xmlns:xlink="http://www.w3.org/1999/xlink" x="0px" y="0px"
	 width="100" viewBox="0 0 1024 992" enable-background="new 0 0 1024 992" xml:space="preserve">
<path fill="#000000" opacity="1.000000" stroke="none" 
	d="
M217.000977,449.942291 
	C226.655579,450.158417 235.814453,449.660706 244.965942,450.667908 
	C271.410248,453.578430 285.938812,479.487061 279.720184,503.181091 
	C274.270203,523.946350 256.731995,532.797607 235.725815,533.874512 
	C224.753967,534.437012 213.733093,534.104431 202.734787,534.064331 
	C196.937820,534.043213 195.789505,532.796875 195.783020,526.908752 
	C195.757523,503.744293 195.752960,480.579865 195.764053,457.415405 
	C195.767014,451.233276 196.865067,450.111725 203.003540,450.005615 
	C207.501785,449.927826 212.001892,449.958649 217.000977,449.942291 
M224.770309,469.911316 
	C221.010864,469.664154 219.945099,471.630157 219.961349,475.123260 
	C220.013947,486.440216 219.935501,497.759827 219.713684,509.074646 
	C219.656204,512.005615 220.883636,512.966919 223.515030,512.952271 
	C227.509888,512.929932 231.526505,512.683411 235.495728,513.004211 
	C245.164856,513.785828 251.054596,508.981262 255.136215,500.761169 
	C260.277435,490.407043 254.691406,475.644043 243.990067,471.448303 
	C237.995972,469.098206 231.813812,470.276123 224.770309,469.911316 
z"/>
<path fill="#000000" opacity="1.000000" stroke="none" 
	d="
M509.336548,507.956055 
	C509.331940,515.110107 509.272247,521.773010 509.346313,528.434448 
	C509.390656,532.424194 507.602905,534.316956 503.585663,534.094055 
	C502.423859,534.029541 501.248505,534.040894 500.088806,534.134460 
	C493.653778,534.654114 489.136353,533.209045 484.625763,527.204712 
	C477.789337,518.104309 470.539642,509.114166 462.621735,500.806061 
	C460.159790,498.222839 459.244965,494.267670 455.683472,492.643097 
	C453.439941,494.005066 454.193390,496.030670 454.187683,497.709015 
	C454.154236,507.538239 454.262573,517.367798 454.267120,527.197266 
	C454.269745,532.885315 453.202698,533.988037 447.641174,534.108643 
	C444.310730,534.180908 440.975922,534.172058 437.645447,534.095154 
	C432.103851,533.967224 430.884399,532.799133 430.881378,527.252014 
	C430.872284,510.591675 430.957397,493.931335 430.986755,477.270935 
	C430.999084,470.273621 431.041534,463.274872 430.921661,456.279358 
	C430.845551,451.837585 432.837921,449.836456 437.264557,450.014618 
	C439.924896,450.121674 442.600281,450.093567 445.258911,449.945862 
	C448.926880,449.742065 451.583740,451.272827 453.845795,454.079254 
	C462.398529,464.690430 471.039581,475.230499 479.668457,485.780121 
	C481.029327,487.443939 482.433807,489.117188 484.958466,489.275574 
	C486.953888,487.276703 486.651581,484.683746 486.622772,482.271851 
	C486.529205,474.446655 486.204346,466.624023 486.125183,458.798828 
	C486.045563,450.928192 487.002228,450.043701 495.059174,449.929169 
	C497.723602,449.891296 500.390778,450.022949 503.054596,449.970612 
	C507.916290,449.875122 509.302643,452.590027 509.286499,456.982666 
	C509.224670,473.809570 509.308380,490.636993 509.336548,507.956055 
z"/>
<path fill="#000000" opacity="1.000000" stroke="none" 
	d="
M292.679443,529.657715 
	C292.659760,505.557678 292.669281,481.925018 292.673065,458.292389 
	C292.674286,450.718475 293.179626,450.041931 300.940308,450.052765 
	C314.075775,450.071106 327.253082,449.143677 340.335724,450.789154 
	C361.995758,453.513428 370.474213,472.713318 365.254700,490.828125 
	C363.522583,496.839600 360.683411,501.718781 355.064209,504.874237 
	C352.154053,506.508392 351.767212,509.013947 354.314392,511.419159 
	C359.507996,516.323303 362.058716,522.994812 366.020203,528.720825 
	C368.231323,531.916748 367.005096,534.043518 362.965271,534.163147 
	C357.645508,534.320679 352.316101,534.126099 346.990875,534.133911 
	C343.905792,534.138367 342.228607,532.234070 340.724030,529.889221 
	C338.033691,525.696411 335.266876,521.551819 332.479126,517.422791 
	C331.169342,515.482727 329.691437,513.575378 327.486877,512.658875 
	C320.837280,509.894409 317.047333,512.494263 317.052338,519.694641 
	C317.054413,522.690186 317.152679,525.686890 317.093567,528.680908 
	C317.022003,532.304016 315.199371,534.176880 311.463074,534.119812 
	C306.803955,534.048706 302.143463,534.057861 297.483551,534.057251 
	C294.793121,534.056946 292.979248,533.039368 292.679443,529.657715 
M318.918884,492.175568 
	C324.835663,491.721558 330.865082,492.817780 336.649475,490.485657 
	C341.284149,488.617096 342.623260,484.889893 342.568878,480.515808 
	C342.511932,475.934418 338.880554,471.064941 335.061523,470.317993 
	C330.493805,469.424591 325.852570,468.948242 321.169525,469.232849 
	C319.405914,469.340088 317.462006,469.687622 317.388580,471.698547 
	C317.143524,478.413513 315.800354,485.202332 318.918884,492.175568 
z"/>
<path fill="#000000" opacity="1.000000" stroke="none" 
	d="
M555.513550,475.501526 
	C561.734497,466.989685 569.706116,460.507202 576.003418,452.531891 
	C577.090332,451.155304 578.580078,450.190338 580.248962,450.145325 
	C586.400391,449.979523 592.569946,449.775208 598.707703,450.083191 
	C602.200989,450.258484 602.868042,452.446991 600.644043,455.226929 
	C593.919678,463.632385 586.860535,471.752502 579.016907,479.128754 
	C572.440491,485.313232 573.148865,491.027893 580.396362,498.662842 
	C586.716248,505.320587 592.441406,512.623230 597.281006,520.481995 
	C599.156250,523.527100 601.776001,525.806213 603.966675,528.508118 
	C604.937439,529.705444 605.894775,530.959656 605.188538,532.559326 
	C604.454041,534.222961 602.807556,534.168396 601.304138,534.167236 
	C595.143921,534.162231 588.983643,534.129395 582.823425,534.106689 
	C580.335510,534.097473 578.415894,533.162598 576.858826,531.102661 
	C570.748047,523.018616 564.462341,515.066223 558.387939,506.955444 
	C556.356506,504.243011 555.145020,504.786102 552.982117,506.963654 
	C548.654907,511.320251 547.352051,516.146301 547.738037,522.278809 
	C548.462219,533.786560 547.795471,534.116455 536.414673,534.125061 
	C524.164795,534.134277 524.377319,534.002808 524.554443,521.379883 
	C524.848755,500.405334 524.675476,479.423950 524.665161,458.445435 
	C524.661377,450.782440 525.229309,450.165588 532.769104,450.004822 
	C549.502563,449.648102 548.175720,450.294952 547.426636,464.245575 
	C547.130005,469.768524 546.668030,475.398102 547.710510,481.288849 
	C551.360779,480.231201 553.044128,477.618622 555.513550,475.501526 
z"/>
<path fill="#000000" opacity="1.000000" stroke="none" 
	d="
M658.363403,448.470398 
	C661.804260,449.447205 664.884521,450.195923 667.862549,451.236816 
	C671.708923,452.581299 672.910278,455.305145 671.422607,459.145203 
	C671.362427,459.300446 671.291260,459.451416 671.229614,459.606079 
	C666.409302,471.698730 666.422729,471.654144 654.128784,467.953949 
	C649.157043,466.457550 644.041870,465.763458 638.833435,466.182037 
	C636.305298,466.385193 633.849854,466.982361 632.038391,468.910217 
	C628.941162,472.206451 630.137146,476.253998 634.929016,477.614166 
	C640.836304,479.290985 646.866882,480.490173 652.737488,482.381195 
	C656.715759,483.662598 660.468018,485.367950 664.299622,486.962372 
	C672.415527,490.339600 675.726074,496.912811 676.123108,505.032410 
	C676.563843,514.045349 673.497253,521.680176 665.342224,526.552734 
	C646.597534,537.752625 627.747070,534.896667 608.902649,526.866699 
	C605.689514,525.497498 604.326721,523.295349 606.077881,519.685059 
	C607.525208,516.701050 608.491516,513.486267 609.725525,510.395569 
	C611.034241,507.117493 612.890198,506.245270 616.294922,508.184540 
	C625.781311,513.587830 636.041260,514.609680 646.691101,512.800354 
	C649.338989,512.350403 651.581238,511.569733 651.833130,508.391907 
	C652.074524,505.347321 650.133789,503.826599 647.726379,502.797913 
	C644.634705,501.476837 641.299255,501.137787 637.995728,500.693512 
	C628.384460,499.400909 619.562195,495.938202 612.005981,489.925110 
	C605.998657,485.144562 605.891418,477.857208 606.435791,471.108917 
	C607.437683,458.690674 614.573181,451.477478 626.843628,448.525879 
	C637.255554,446.021240 647.573853,445.968719 658.363403,448.470398 
z"/>
<path fill="#000000" opacity="1.000000" stroke="none" 
	d="
M743.395752,480.246002 
	C740.848022,489.619171 735.192688,496.355011 728.002869,501.880798 
	C724.497192,504.575134 721.574463,507.588898 719.480164,512.330444 
	C724.825745,513.407532 729.916138,512.796936 734.936523,512.845703 
	C746.114807,512.954346 746.121094,512.894409 746.187073,524.010742 
	C746.197937,525.841797 746.203613,527.677673 746.088501,529.503601 
	C745.902588,532.451721 744.345520,534.129639 741.310242,534.127625 
	C722.821899,534.115417 704.333435,534.093079 685.845215,534.028687 
	C683.933960,534.021973 682.298340,533.331299 681.381287,531.404785 
	C679.188049,526.797363 681.257263,516.933105 685.158752,513.334167 
	C695.023010,504.234894 704.875549,495.122620 714.686584,485.966003 
	C715.765442,484.959076 716.695862,483.718018 717.436279,482.436066 
	C721.373901,475.618774 718.582886,469.673401 710.857239,468.650116 
	C705.814575,467.982239 701.142090,469.117157 697.831299,473.274506 
	C695.644470,476.020447 693.466370,476.436371 690.529968,474.611053 
	C687.143005,472.505646 683.603577,470.647095 680.187866,468.585968 
	C677.175842,466.768433 677.389038,464.633057 679.368835,461.952576 
	C687.725159,450.639099 699.731079,448.270233 712.611633,448.502106 
	C722.456482,448.679291 731.734497,450.707184 738.513245,458.963959 
	C743.625000,465.190247 745.814758,471.937897 743.395752,480.246002 
z"/>
<path fill="#000000" opacity="1.000000" stroke="none" 
	d="
M393.038208,435.220215 
	C394.264069,427.490021 393.737854,420.153534 393.752747,412.843231 
	C393.761383,408.612732 395.356262,406.244995 399.775146,406.003418 
	C404.140930,405.764709 406.422516,407.848083 406.578735,412.069092 
	C406.879333,420.190491 407.025391,428.318085 407.183441,436.444122 
	C407.299011,442.385223 408.005859,448.027374 412.823334,452.362000 
	C414.929871,454.257355 415.138153,457.033051 415.143768,459.769257 
	C415.188690,481.737122 415.191284,503.705536 415.381409,525.672241 
	C415.422546,530.422913 413.404205,532.548584 408.836060,533.325928 
	C402.642761,534.379822 396.539429,533.441650 390.432007,533.009583 
	C385.678040,532.673157 384.891876,528.767029 384.857941,524.921875 
	C384.794739,517.767273 384.689728,510.597351 385.062714,503.457886 
	C385.784088,489.648071 384.855652,475.860535 384.831696,462.062927 
	C384.822937,457.005951 385.713257,452.537689 389.378021,448.812042 
	C392.987762,445.142334 392.680878,440.301086 393.038208,435.220215 
z"/>
<path fill="#000000" opacity="1.000000" stroke="none" 
	d="
M777.936279,469.003052 
	C777.887695,465.171112 777.819458,461.838593 777.806763,458.505829 
	C777.781860,451.973297 778.952271,450.676056 785.415039,449.954193 
	C786.549744,449.827484 787.681152,449.671509 788.766479,449.535034 
	C789.446045,447.505798 787.455017,446.426239 787.573669,444.683319 
	C787.738098,442.267578 788.003479,439.985992 790.311951,438.615906 
	C792.105286,437.551636 793.822754,437.966003 795.463196,439.073608 
	C797.619934,440.529816 797.909424,442.573517 797.109009,444.805115 
	C795.650940,448.870087 797.343384,450.273651 801.279541,450.255554 
	C803.585083,450.244965 804.664429,449.309509 804.775513,447.046722 
	C804.877075,444.978638 805.653687,443.118347 807.043274,441.612549 
	C809.258301,439.212067 812.029968,438.829956 814.743286,440.436035 
	C818.829468,442.854767 816.082642,445.845398 814.975525,448.362366 
	C815.620728,450.001831 816.898010,450.026428 818.012024,450.145203 
	C821.415588,450.508209 822.357666,452.604645 822.340515,455.689087 
	C822.269287,468.520569 822.438721,481.355530 822.198181,494.183197 
	C822.026367,503.345886 814.790466,511.365814 805.481140,513.390198 
	C794.729980,515.728088 786.725159,512.094727 781.832214,503.311401 
	C779.123779,498.449432 778.156616,493.367218 778.052185,487.999420 
	C777.932251,481.835327 777.971497,475.668182 777.936279,469.003052 
z"/>
<path fill="#000000" opacity="1.000000" stroke="none" 
	d="
M786.563843,512.567505 
	C796.356628,518.698425 805.536072,516.838745 814.775879,512.010864 
	C821.524231,508.484802 822.156677,501.524323 823.695435,495.557220 
	C825.776550,487.486725 824.625916,478.997040 824.365417,470.671265 
	C824.131165,463.182190 823.934265,455.684235 824.041016,448.194794 
	C824.114380,443.053772 825.898621,441.747009 830.859375,441.868469 
	C835.561157,441.983643 836.752625,444.836456 836.718445,448.821320 
	C836.594116,463.315063 836.475708,477.808899 836.331177,492.302490 
	C836.297974,495.629211 836.066406,498.923706 835.595520,502.245361 
	C834.627747,509.071747 831.394470,514.415955 826.148743,518.690491 
	C823.811035,520.595398 822.766052,522.414795 823.849854,525.892273 
	C825.648193,531.662659 823.269592,534.161926 817.120056,534.169617 
	C805.454224,534.184143 793.788269,534.190247 782.122620,534.141052 
	C776.368286,534.116760 774.061035,531.218933 776.251831,525.835571 
	C777.459534,522.867859 776.828735,521.292358 774.819458,519.393433 
	C766.990662,511.994629 763.584717,502.435791 763.199890,492.082367 
	C762.655457,477.437286 763.006104,462.758118 763.021667,448.093597 
	C763.025757,444.265198 764.390869,441.758331 768.876465,441.768829 
	C774.433594,441.781860 776.194214,443.141022 776.123657,448.732086 
	C775.968079,461.057190 775.414795,473.381226 775.467896,485.703735 
	C775.506348,494.639252 776.856628,503.378418 783.551331,510.218628 
	C784.356384,511.041077 785.321350,511.707062 786.563843,512.567505 
z"/>
<path fill="#000000" opacity="1.000000" stroke="none" 
	d="
M801.802673,431.644531 
	C804.876343,433.211121 804.624573,435.083374 802.540527,436.811401 
	C801.140381,437.972321 799.486206,437.468567 798.715332,435.951935 
	C797.330017,433.226715 798.786804,431.940308 801.802673,431.644531 
z"/>
</svg>